<svg xmlns="http://www.w3.org/2000/svg" width="188.1" height="119.6" viewBox="0 0 188.1 119.6"><title>2005.m10.i002.n002_5</title><g id="Layer_2" data-name="Layer 2"><g id="Layer_1-2" data-name="Layer 1"><path d="M166,42.1H145.2a3.5,3.5,0,0,1-3.4-2.6l-4.5-15.9h36.5l-4.4,15.9A3.5,3.5,0,0,1,166,42.1ZM138.9,24.8,143,39.2a2.4,2.4,0,0,0,2.3,1.7H166a2.4,2.4,0,0,0,2.3-1.7l4-14.4Z" fill="#8b9bb4"/><rect x="139.8" y="29.4" width="31.7" height="1.16" fill="#8b9bb4"/><rect x="141.4" y="35.2" width="28.4" height="1.16" fill="#8b9bb4"/><rect x="152" y="32.3" width="17.3" height="1.16" transform="translate(113 189.8) rotate(-84.7)" fill="#8b9bb4"/><rect x="150" y="24.2" width="1.2" height="17.35" transform="translate(-2.4 14.1) rotate(-5.3)" fill="#8b9bb4"/><rect x="135.5" y="38.9" width="6.9" height="1.16" fill="#8b9bb4"/><rect x="25.6" y="54.1" width="1.1" height="28.49" transform="translate(-38.9 34.8) rotate(-41.8)" fill="#c0cbdc"/><rect x="32.4" y="50.2" width="1.1" height="28.49" transform="translate(-19.4 14.5) rotate(-19.2)" fill="#c0cbdc"/><rect x="26.5" y="62.7" width="28.5" height="1.15" transform="translate(-24.8 100.4) rotate(-86.8)" fill="#c0cbdc"/><rect x="34.1" y="64.7" width="28.5" height="1.15" transform="translate(-31.5 80.4) rotate(-64.2)" fill="#c0cbdc"/><rect x="40.3" y="69.4" width="28.5" height="1.15" transform="translate(-32.8 54.1) rotate(-41.8)" fill="#c0cbdc"/><rect x="44.3" y="76.2" width="28.5" height="1.15" transform="translate(-22 23.6) rotate(-19.3)" fill="#c0cbdc"/><rect x="59.1" y="70.3" width="1.1" height="28.49" transform="translate(-28.1 139.3) rotate(-86.8)" fill="#c0cbdc"/><rect x="57.1" y="77.9" width="1.1" height="28.49" transform="translate(-50.4 104.1) rotate(-64.3)" fill="#c0cbdc"/><rect x="52.4" y="84.2" width="1.1" height="28.49" transform="translate(-52.1 60.3) rotate(-41.8)" fill="#c0cbdc"/><rect x="45.6" y="88.2" width="1.1" height="28.49" transform="translate(-31.2 21) rotate(-19.2)" fill="#c0cbdc"/><rect x="24.2" y="102.9" width="28.5" height="1.15" transform="translate(-67.1 136) rotate(-86.8)" fill="#c0cbdc"/><rect x="16.6" y="101" width="28.5" height="1.15" transform="translate(-74 85.2) rotate(-64.2)" fill="#c0cbdc"/><rect x="10.3" y="96.2" width="28.5" height="1.15" transform="translate(-58.2 40.9) rotate(-41.8)" fill="#c0cbdc"/><rect x="6.3" y="89.5" width="28.5" height="1.15" transform="translate(-28.5 11.8) rotate(-19.3)" fill="#c0cbdc"/><rect x="18.9" y="68" width="1.1" height="28.49" transform="translate(-63.8 97) rotate(-86.7)" fill="#c0cbdc"/><rect x="20.9" y="60.4" width="1.1" height="28.49" transform="translate(-55.1 61.5) rotate(-64.2)" fill="#c0cbdc"/><path d="M39.8,118A34.4,34.4,0,1,1,74.2,83.6,34.4,34.4,0,0,1,39.8,118Zm0-65.5A31.2,31.2,0,1,0,70.9,83.6,31.2,31.2,0,0,0,39.8,52.5Z" fill="#c0cbdc"/><path d="M39.6,119.6A36.2,36.2,0,1,1,75.7,83.4,36.2,36.2,0,0,1,39.6,119.6Zm0-68.9A32.8,32.8,0,1,0,72.3,83.4,32.8,32.8,0,0,0,39.6,50.6Z" fill="#262b44"/><path d="M.8,78.9H.7a.8.8,0,0,1-.7-1,39.9,39.9,0,0,1,77-8.4.8.8,0,0,1-1.6.6,38.2,38.2,0,0,0-73.7,8A.8.8,0,0,1,.8,78.9Z" fill="#c0cbdc"/><path d="M8.1,7.2l8.5,29.6A4.6,4.6,0,0,0,21,40.1H48.2A1.9,1.9,0,0,0,50,38.7l.7-2.6a1.9,1.9,0,0,0-2-2.4L27.5,35.1a4.7,4.7,0,0,1-5-3.8L19.2,14.7a11.5,11.5,0,0,0-8.8-9l-.8-.2A1.3,1.3,0,0,0,8.1,7.2Z" fill="#8f5765"/><path d="M20.3,31.8a.3.3,0,0,1-.3-.2L16.7,14.9a8.5,8.5,0,0,0-5.1-6.2.3.3,0,1,1,.2-.5,9.1,9.1,0,0,1,5.5,6.6l3.3,16.6a.3.3,0,0,1-.2.3Z" fill="#52294b"/><rect x="89.8" y="64.7" width="9.9" height="3.24" rx="0.7" ry="0.7" transform="translate(189.5 132.6) rotate(180)" fill="#262b44"/><path d="M90.1,83.8h-.3a.8.8,0,0,1-.4-1L96.8,66a.8.8,0,1,1,1.4.6L90.8,83.4A.8.8,0,0,1,90.1,83.8Z" fill="#c0cbdc"/><rect x="138" y="54.1" width="1.1" height="28.49" transform="translate(-10.4 109.6) rotate(-41.8)" fill="#c0cbdc"/><rect x="144.7" y="50.2" width="1.1" height="28.49" transform="translate(-13.1 51.5) rotate(-19.2)" fill="#c0cbdc"/><rect x="138.8" y="62.7" width="28.5" height="1.15" transform="translate(81.2 212.6) rotate(-86.8)" fill="#c0cbdc"/><rect x="146.4" y="64.7" width="28.5" height="1.15" transform="translate(32.1 181.6) rotate(-64.2)" fill="#c0cbdc"/><rect x="152.7" y="69.4" width="28.5" height="1.15" transform="translate(-4.2 129) rotate(-41.8)" fill="#c0cbdc"/><rect x="156.7" y="76.2" width="28.5" height="1.15" transform="translate(-15.8 60.7) rotate(-19.3)" fill="#c0cbdc"/><rect x="171.5" y="70.3" width="1.1" height="28.49" transform="translate(77.9 251.5) rotate(-86.8)" fill="#c0cbdc"/><rect x="169.5" y="77.9" width="1.1" height="28.49" transform="matrix(0.43, -0.9, 0.9, 0.43, 13.18, 205.31)" fill="#c0cbdc"/><rect x="164.8" y="84.2" width="1.1" height="28.49" transform="translate(-23.6 135.1) rotate(-41.8)" fill="#c0cbdc"/><rect x="158" y="88.2" width="1.1" height="28.49" transform="translate(-24.9 58) rotate(-19.2)" fill="#c0cbdc"/><rect x="136.6" y="102.9" width="28.5" height="1.15" transform="translate(38.9 248.2) rotate(-86.8)" fill="#c0cbdc"/><rect x="129" y="101" width="28.5" height="1.15" transform="translate(-10.5 186.4) rotate(-64.2)" fill="#c0cbdc"/><rect x="122.7" y="96.2" width="28.5" height="1.15" transform="translate(-29.7 115.8) rotate(-41.8)" fill="#c0cbdc"/><rect x="118.7" y="89.5" width="28.5" height="1.15" transform="translate(-22.3 48.9) rotate(-19.3)" fill="#c0cbdc"/><rect x="131.3" y="68" width="1.1" height="28.49" transform="translate(42.2 209.2) rotate(-86.7)" fill="#c0cbdc"/><rect x="133.2" y="60.4" width="1.1" height="28.49" transform="translate(8.4 162.8) rotate(-64.2)" fill="#c0cbdc"/><path d="M151.9,117.8a34.4,34.4,0,1,1,34.4-34.4A34.4,34.4,0,0,1,151.9,117.8Zm0-65.5a31.2,31.2,0,1,0,31.2,31.2A31.2,31.2,0,0,0,151.9,52.3Z" fill="#c0cbdc"/><path d="M151.9,119.6a36.2,36.2,0,1,1,36.2-36.2A36.2,36.2,0,0,1,151.9,119.6Zm0-68.9a32.8,32.8,0,1,0,32.8,32.8A32.8,32.8,0,0,0,151.9,50.6Z" fill="#262b44"/><path d="M113.2,78.9h-.1a.9.9,0,0,1-.7-1A40,40,0,0,1,171,48.3a.9.9,0,1,1-.8,1.5,38.3,38.3,0,0,0-56.1,28.3A.9.9,0,0,1,113.2,78.9Z" fill="#c0cbdc"/><rect x="39.4" y="74.5" width="50.1" height="1.53" transform="translate(-7.8 7.5) rotate(-6.3)" fill="#5a6988"/><rect x="62.8" y="67.3" width="1.5" height="48.27" transform="translate(-34.4 144.6) rotate(-83.7)" fill="#5a6988"/><path d="M79.6,86.4a10.3,10.3,0,1,0,6.9-12.8A10.3,10.3,0,0,0,79.6,86.4Zm16.9-7a8.1,8.1,0,0,1,.7,1.7.8.8,0,0,1-.7,1l-5.4.4v1.6l5.4-.4a.8.8,0,0,1,.9.9,8.2,8.2,0,0,1-4,6l-1.7.7a.8.8,0,0,1-1-.7l-.4-5.4H88.8l.4,5.4a.8.8,0,0,1-.9.9,8.2,8.2,0,0,1-6.7-5.7.8.8,0,0,1,.7-1l5.4-.4V82.8l-5.4.4a.8.8,0,0,1-.9-.9,8.2,8.2,0,0,1,4-6l1.7-.7a.8.8,0,0,1,1,.7l.4,5.4h1.6l-.4-5.4a.8.8,0,0,1,.9-.9A8.2,8.2,0,0,1,96.5,79.4Z" fill="#8b9bb4"/><path d="M89.4,95.1a11.7,11.7,0,1,1,11.7-11.7A11.7,11.7,0,0,1,89.4,95.1Zm0-21.7a10,10,0,1,0,10,10A10,10,0,0,0,89.4,73.4Z" fill="#262b44"/><path d="M39.6,89.7a6.2,6.2,0,1,1,6.2-6.2A6.3,6.3,0,0,1,39.6,89.7Zm0-10.8a4.5,4.5,0,1,0,4.5,4.5A4.5,4.5,0,0,0,39.6,78.9Z" fill="#262b44"/><circle cx="39.6" cy="83.4" r="3.6" fill="#8b9bb4"/><path d="M151.9,89.9a6.5,6.5,0,1,1,6.5-6.5A6.5,6.5,0,0,1,151.9,89.9Zm0-11.2a4.8,4.8,0,1,0,4.8,4.8A4.8,4.8,0,0,0,151.9,78.6Z" fill="#262b44"/><circle cx="151.9" cy="83.4" r="3.7" fill="#8b9bb4"/><path d="M67.8,52.2a1.4,1.4,0,0,1-1.1-.5l-6.2-8.3a5.5,5.5,0,0,0-4.2-2H16.9a1.4,1.4,0,0,1,0-2.7H56.3a8.2,8.2,0,0,1,6.4,3h0L68.9,50a1.4,1.4,0,0,1-1.1,2.2Z" fill="#8b9bb4"/><rect x="30" y="38.3" width="1.2" height="46.62" transform="translate(-21.1 16.2) rotate(-22.3)" fill="#8b9bb4"/><rect x="24.2" y="61.2" width="45.9" height="1.16" transform="translate(-26.6 86) rotate(-70.9)" fill="#8b9bb4"/><path d="M151.9,84.8a1.4,1.4,0,0,1-1.3-.9L137.6,44.8a1.4,1.4,0,1,1,2.6-.9L153.2,83a1.4,1.4,0,0,1-.9,1.7Z" fill="#c0cbdc"/><path d="M129.6,18.4a1.4,1.4,0,0,1-.2-2.7l8.5-1.4a4.6,4.6,0,0,0,.1-9L129.7,4a1.4,1.4,0,1,1,.4-2.7l8.4,1.4a7.3,7.3,0,0,1-.1,14.3l-8.5,1.4Z" fill="#c0cbdc"/><path d="M131.8,4.9h-.3l-6.2-1A1.9,1.9,0,0,1,126,0l6.2,1a1.9,1.9,0,0,1-.3,3.8Z" fill="#262b44"/><path d="M71.5,34.2a1.4,1.4,0,0,1-1.3-.9l-3.3-9.4a1.4,1.4,0,1,1,2.6-.9l3.3,9.4a1.4,1.4,0,0,1-.8,1.7Z" fill="#c0cbdc"/><path d="M79.7,24.2,58.6,27.3a3.1,3.1,0,0,1-.9-6.1H79.5a1.6,1.6,0,0,1,.2,3.1Z" fill="#262b44"/><path d="M39.6,85.1a1.7,1.7,0,0,1-1.3-2.8L73.6,41.6a1.7,1.7,0,1,1,2.6,2.2L40.8,84.5A1.7,1.7,0,0,1,39.6,85.1Z" fill="#a22633"/><path d="M89.4,85.3A1.9,1.9,0,0,1,87.6,84L69.7,33.5a1.9,1.9,0,1,1,3.6-1.3L91.2,82.8A1.9,1.9,0,0,1,90,85.2Z" fill="#e43b44"/><path d="M144.7,63.7a1.9,1.9,0,0,1-1.8-1.3l-15-44.7a1.9,1.9,0,1,1,3.6-1.2l15,44.7a1.9,1.9,0,0,1-1.2,2.4Z" fill="#e43b44"/><path d="M89.4,85.1a1.7,1.7,0,0,1-.9-3.1l7.6-4.8a30.4,30.4,0,0,0,7.8-7.1l15.9-20.4a30.5,30.5,0,0,1,13.3-9.8l3.6-1.4a1.7,1.7,0,1,1,1.2,3.2l-3.6,1.4a27,27,0,0,0-11.8,8.7L106.6,72.2a33.8,33.8,0,0,1-8.7,7.9l-7.6,4.8Z" fill="#e43b44"/><path d="M83.1,67.5a1.7,1.7,0,0,1-.3-3.4l4.3-.7a30.6,30.6,0,0,0,17-9.1l13.2-14.1a30.6,30.6,0,0,1,11.5-7.6l5-1.9a1.7,1.7,0,1,1,1.2,3.2l-5,1.9a27.2,27.2,0,0,0-10.2,6.8L106.6,56.6A34.1,34.1,0,0,1,87.7,66.8l-4.3.7Z" fill="#e43b44"/><path d="M89.4,85.1H39.6a1.7,1.7,0,1,1,0-3.4H89.4a1.7,1.7,0,1,1,0,3.4Z" fill="#e43b44"/><path d="M82.7,100.6h-.3a.8.8,0,0,1-.4-1l7.4-16.8a.8.8,0,1,1,1.4.6l-7.4,16.8A.8.8,0,0,1,82.7,100.6Z" fill="#c0cbdc"/><rect x="79.1" y="99.3" width="9.9" height="3.24" rx="0.7" ry="0.7" transform="translate(168.1 201.8) rotate(180)" fill="#262b44"/><path d="M138.9,27.8h-8.6a1,1,0,1,1,0-1.9h7.3l-.4-1.4a1,1,0,0,1,.9-1.2h35.7a1,1,0,0,1,0,1.9H139.4l.4,1.4a1,1,0,0,1-.9,1.2Z" fill="#5a6988"/></g></g></svg>